<svg id="Layer_1" data-name="Layer 1" xmlns="http://www.w3.org/2000/svg" viewBox="0 0 1000 1000"><defs><style>.cls-1{fill:#272343;}.cls-2{fill:#fff;stroke:#fff;stroke-miterlimit:10;}</style></defs><rect class="cls-1" width="1000" height="1000"/><path class="cls-2" d="M230.75,298.07V701.93h-38a14.37,14.37,0,0,1-9.7-3.8q-8.25-7.57-15.83-15.84a14.32,14.32,0,0,1-3.81-9.7V327.41a14.32,14.32,0,0,1,3.81-9.7q7.58-8.26,15.83-15.84a14.37,14.37,0,0,1,9.7-3.8Z"/><path class="cls-2" d="M500,349.48a203,203,0,0,0-42.09,52.75,135.34,135.34,0,0,0-25.22-18.85A133.94,133.94,0,0,0,399,369.62h0A134.6,134.6,0,0,0,230.75,500V349.48h0a202.27,202.27,0,0,1,201.94-39.92q4.29,1.51,8.47,3.22A201.75,201.75,0,0,1,500,349.48Z"/><path class="cls-2" d="M441.32,687.39l-8.63,3.05a201.79,201.79,0,0,1-201.94-39.92h0V500a134.17,134.17,0,0,0,18,67.31,135.56,135.56,0,0,0,49.31,49.31,134.14,134.14,0,0,0,67.31,18h36a269,269,0,0,0,31.28,43.44Z"/><path class="cls-2" d="M836.56,500V672.59a14.32,14.32,0,0,1-3.81,9.7q-7.57,8.26-15.83,15.84a14.37,14.37,0,0,1-9.7,3.8h-38V500a134.17,134.17,0,0,0-18-67.31,135.56,135.56,0,0,0-49.31-49.31A135,135,0,0,0,601,369.62h0a133.94,133.94,0,0,0-33.68,13.76A134.59,134.59,0,0,0,500,500V701.93H462a14.32,14.32,0,0,1-9.67-3.77q-5.78-5.29-11.2-10.94l-8.47-9.16h0V500A202.1,202.1,0,0,1,558.84,312.78q4.18-1.71,8.47-3.22A201.87,201.87,0,0,1,836.56,500Z"/><path class="cls-2" d="M701.93,383.38h0V500a67.32,67.32,0,0,0-67.31-67.31s-8.39.33-8.35.52a67.34,67.34,0,0,0-59,66.79,200.92,200.92,0,0,0-25.22-97.77,135.34,135.34,0,0,1,25.22-18.85A133.94,133.94,0,0,1,601,369.62h0a135,135,0,0,1,100.93,13.76Z"/></svg>